<?xml version="1.0" encoding="utf-8"?>
<svg version="1.1" id="Layer_1"
xmlns="http://www.w3.org/2000/svg"
xmlns:xlink="http://www.w3.org/1999/xlink"
xmlns:author="http://www.sothink.com"
width="555px" height="334px"
xml:space="preserve">
<g id="0" transform="matrix(1, 0, 0, 1, 0.35, -89.5)">
<path style="fill:none;stroke-width:1;stroke-linecap:round;stroke-linejoin:round;stroke-miterlimit:3;stroke:#000000;stroke-opacity:1" d="M367.4,277.95L367.4 285.95M366.4,277.95L356.4 277.95M47,278L47 286M48,278L58 278M206.95,363L48 279M207.45,362.95L366.4 278.95" />
<path style="fill:none;stroke-width:1;stroke-linecap:round;stroke-linejoin:round;stroke-miterlimit:3;stroke:#000000;stroke-opacity:1" d="M41,97L47 90L53 97M47,268L47 90" />
<path style="fill:#6C9DE6;fill-opacity:1" d="M1,369L552.95 369L552.95 422L1 422L1 369" />
<path style="fill:none;stroke-width:2.75;stroke-linecap:round;stroke-linejoin:round;stroke-miterlimit:3;stroke:#B6CAEF;stroke-opacity:1" d="M1,369L552.95 369L552.95 422L1 422" />
</g>
</svg>
