<?xml version="1.0" encoding="utf-8"?>
<svg version="1.1" id="Layer_1"
xmlns="http://www.w3.org/2000/svg"
xmlns:xlink="http://www.w3.org/1999/xlink"
xmlns:author="http://www.sothink.com"
width="60px" height="68px"
xml:space="preserve">
<g id="0" transform="matrix(1, 0, 0, 1, 0, 0)">
<path style="fill:#6C9DE6;fill-opacity:1" d="M60,16L60 51.8L30 67.8L30 31.95L60 16" />
<path style="fill:#1D55A9;fill-opacity:1" d="M0,51.8L0 16.05L0.05 15.95L30 31.95L30 67.8L0 51.8" />
<path style="fill:#2D73DB;fill-opacity:1" d="M30,0L60 16L30 31.95L0.05 15.95L30 0" />
<path style="fill:none;stroke-width:0.05;stroke-linecap:round;stroke-linejoin:round;stroke-miterlimit:3;stroke:#000000;stroke-opacity:1" d="M30,31.95L30 67.8L60 51.8L60 16L30 31.95L0.05 15.95M0,16.05L0 51.8L30 67.8M60,16L30 0L0.05 15.95" />
</g>
</svg>
